%TF.GenerationSoftware,KiCad,Pcbnew,7.0.9*%
%TF.CreationDate,2024-01-08T23:19:19+02:00*%
%TF.ProjectId,Ex05-Chapter06,45783035-2d43-4686-9170-74657230362e,rev?*%
%TF.SameCoordinates,Original*%
%TF.FileFunction,Copper,L1,Top*%
%TF.FilePolarity,Positive*%
%FSLAX46Y46*%
G04 Gerber Fmt 4.6, Leading zero omitted, Abs format (unit mm)*
G04 Created by KiCad (PCBNEW 7.0.9) date 2024-01-08 23:19:19*
%MOMM*%
%LPD*%
G01*
G04 APERTURE LIST*
%TA.AperFunction,ComponentPad*%
%ADD10O,1.600000X1.600000*%
%TD*%
%TA.AperFunction,ComponentPad*%
%ADD11C,1.600000*%
%TD*%
%TA.AperFunction,ComponentPad*%
%ADD12C,2.000000*%
%TD*%
%TA.AperFunction,ComponentPad*%
%ADD13R,3.000000X3.000000*%
%TD*%
%TA.AperFunction,ComponentPad*%
%ADD14C,3.000000*%
%TD*%
%TA.AperFunction,ComponentPad*%
%ADD15R,1.800000X1.800000*%
%TD*%
%TA.AperFunction,ComponentPad*%
%ADD16C,1.800000*%
%TD*%
%TA.AperFunction,Conductor*%
%ADD17C,0.250000*%
%TD*%
G04 APERTURE END LIST*
D10*
%TO.P,REF\u002A\u002A,2*%
%TO.N,N/C*%
X104140000Y-86360000D03*
D11*
%TO.P,REF\u002A\u002A,1*%
X93980000Y-86360000D03*
%TD*%
D12*
%TO.P,REF\u002A\u002A,1*%
%TO.N,N/C*%
X116840000Y-99640000D03*
X123340000Y-99640000D03*
%TO.P,REF\u002A\u002A,2*%
X116840000Y-104140000D03*
X123340000Y-104140000D03*
%TD*%
%TO.P,REF\u002A\u002A,1*%
%TO.N,N/C*%
X116840000Y-84110000D03*
X123340000Y-84110000D03*
%TO.P,REF\u002A\u002A,2*%
X116840000Y-88610000D03*
X123340000Y-88610000D03*
%TD*%
D13*
%TO.P,REF\u002A\u002A,1*%
%TO.N,N/C*%
X129540000Y-93980000D03*
D14*
%TO.P,REF\u002A\u002A,2*%
X150030000Y-93980000D03*
%TD*%
D10*
%TO.P,REF\u002A\u002A,2*%
%TO.N,N/C*%
X104140000Y-101600000D03*
D11*
%TO.P,REF\u002A\u002A,1*%
X93980000Y-101600000D03*
%TD*%
D15*
%TO.P,REF\u002A\u002A,1*%
%TO.N,N/C*%
X109220000Y-86360000D03*
D16*
%TO.P,REF\u002A\u002A,2*%
X111760000Y-86360000D03*
%TD*%
%TO.P,REF\u002A\u002A,2*%
%TO.N,N/C*%
X111760000Y-101600000D03*
D15*
%TO.P,REF\u002A\u002A,1*%
X109220000Y-101600000D03*
%TD*%
D17*
%TO.N,*%
X93980000Y-83820000D02*
X93980000Y-86360000D01*
X96520000Y-106680000D02*
X93980000Y-104140000D01*
X93980000Y-104140000D02*
X93980000Y-101600000D01*
X124460000Y-106680000D02*
X96520000Y-106680000D01*
X137160000Y-93980000D02*
X124460000Y-106680000D01*
X96520000Y-81280000D02*
X93980000Y-83820000D01*
X124460000Y-81280000D02*
X96520000Y-81280000D01*
X150030000Y-93980000D02*
X137160000Y-93980000D01*
X137160000Y-93980000D02*
X124460000Y-81280000D01*
X129000000Y-93980000D02*
X129540000Y-93980000D01*
X123340000Y-99640000D02*
X129000000Y-93980000D01*
X114300000Y-104140000D02*
X116840000Y-104140000D01*
X111760000Y-101600000D02*
X114300000Y-104140000D01*
X104140000Y-101600000D02*
X109220000Y-101600000D01*
X109220000Y-86360000D02*
X104140000Y-86360000D01*
X114590000Y-86360000D02*
X111760000Y-86360000D01*
X116840000Y-84110000D02*
X114590000Y-86360000D01*
X128710000Y-93980000D02*
X123340000Y-88610000D01*
X129540000Y-93980000D02*
X128710000Y-93980000D01*
%TD*%
M02*
