%TF.GenerationSoftware,KiCad,Pcbnew,7.0.9*%
%TF.CreationDate,2024-01-08T23:19:19+02:00*%
%TF.ProjectId,Ex05-Chapter06,45783035-2d43-4686-9170-74657230362e,rev?*%
%TF.SameCoordinates,Original*%
%TF.FileFunction,Legend,Top*%
%TF.FilePolarity,Positive*%
%FSLAX46Y46*%
G04 Gerber Fmt 4.6, Leading zero omitted, Abs format (unit mm)*
G04 Created by KiCad (PCBNEW 7.0.9) date 2024-01-08 23:19:19*
%MOMM*%
%LPD*%
G01*
G04 APERTURE LIST*
%ADD10C,0.150000*%
%ADD11C,0.120000*%
G04 APERTURE END LIST*
D10*
X97726666Y-84444819D02*
X97393333Y-83968628D01*
X97155238Y-84444819D02*
X97155238Y-83444819D01*
X97155238Y-83444819D02*
X97536190Y-83444819D01*
X97536190Y-83444819D02*
X97631428Y-83492438D01*
X97631428Y-83492438D02*
X97679047Y-83540057D01*
X97679047Y-83540057D02*
X97726666Y-83635295D01*
X97726666Y-83635295D02*
X97726666Y-83778152D01*
X97726666Y-83778152D02*
X97679047Y-83873390D01*
X97679047Y-83873390D02*
X97631428Y-83921009D01*
X97631428Y-83921009D02*
X97536190Y-83968628D01*
X97536190Y-83968628D02*
X97155238Y-83968628D01*
X98155238Y-83921009D02*
X98488571Y-83921009D01*
X98631428Y-84444819D02*
X98155238Y-84444819D01*
X98155238Y-84444819D02*
X98155238Y-83444819D01*
X98155238Y-83444819D02*
X98631428Y-83444819D01*
X99393333Y-83921009D02*
X99060000Y-83921009D01*
X99060000Y-84444819D02*
X99060000Y-83444819D01*
X99060000Y-83444819D02*
X99536190Y-83444819D01*
X100060000Y-83444819D02*
X100060000Y-83682914D01*
X99821905Y-83587676D02*
X100060000Y-83682914D01*
X100060000Y-83682914D02*
X100298095Y-83587676D01*
X99917143Y-83873390D02*
X100060000Y-83682914D01*
X100060000Y-83682914D02*
X100202857Y-83873390D01*
X100821905Y-83444819D02*
X100821905Y-83682914D01*
X100583810Y-83587676D02*
X100821905Y-83682914D01*
X100821905Y-83682914D02*
X101060000Y-83587676D01*
X100679048Y-83873390D02*
X100821905Y-83682914D01*
X100821905Y-83682914D02*
X100964762Y-83873390D01*
X118756666Y-98094819D02*
X118423333Y-97618628D01*
X118185238Y-98094819D02*
X118185238Y-97094819D01*
X118185238Y-97094819D02*
X118566190Y-97094819D01*
X118566190Y-97094819D02*
X118661428Y-97142438D01*
X118661428Y-97142438D02*
X118709047Y-97190057D01*
X118709047Y-97190057D02*
X118756666Y-97285295D01*
X118756666Y-97285295D02*
X118756666Y-97428152D01*
X118756666Y-97428152D02*
X118709047Y-97523390D01*
X118709047Y-97523390D02*
X118661428Y-97571009D01*
X118661428Y-97571009D02*
X118566190Y-97618628D01*
X118566190Y-97618628D02*
X118185238Y-97618628D01*
X119185238Y-97571009D02*
X119518571Y-97571009D01*
X119661428Y-98094819D02*
X119185238Y-98094819D01*
X119185238Y-98094819D02*
X119185238Y-97094819D01*
X119185238Y-97094819D02*
X119661428Y-97094819D01*
X120423333Y-97571009D02*
X120090000Y-97571009D01*
X120090000Y-98094819D02*
X120090000Y-97094819D01*
X120090000Y-97094819D02*
X120566190Y-97094819D01*
X121090000Y-97094819D02*
X121090000Y-97332914D01*
X120851905Y-97237676D02*
X121090000Y-97332914D01*
X121090000Y-97332914D02*
X121328095Y-97237676D01*
X120947143Y-97523390D02*
X121090000Y-97332914D01*
X121090000Y-97332914D02*
X121232857Y-97523390D01*
X121851905Y-97094819D02*
X121851905Y-97332914D01*
X121613810Y-97237676D02*
X121851905Y-97332914D01*
X121851905Y-97332914D02*
X122090000Y-97237676D01*
X121709048Y-97523390D02*
X121851905Y-97332914D01*
X121851905Y-97332914D02*
X121994762Y-97523390D01*
X118756666Y-82564819D02*
X118423333Y-82088628D01*
X118185238Y-82564819D02*
X118185238Y-81564819D01*
X118185238Y-81564819D02*
X118566190Y-81564819D01*
X118566190Y-81564819D02*
X118661428Y-81612438D01*
X118661428Y-81612438D02*
X118709047Y-81660057D01*
X118709047Y-81660057D02*
X118756666Y-81755295D01*
X118756666Y-81755295D02*
X118756666Y-81898152D01*
X118756666Y-81898152D02*
X118709047Y-81993390D01*
X118709047Y-81993390D02*
X118661428Y-82041009D01*
X118661428Y-82041009D02*
X118566190Y-82088628D01*
X118566190Y-82088628D02*
X118185238Y-82088628D01*
X119185238Y-82041009D02*
X119518571Y-82041009D01*
X119661428Y-82564819D02*
X119185238Y-82564819D01*
X119185238Y-82564819D02*
X119185238Y-81564819D01*
X119185238Y-81564819D02*
X119661428Y-81564819D01*
X120423333Y-82041009D02*
X120090000Y-82041009D01*
X120090000Y-82564819D02*
X120090000Y-81564819D01*
X120090000Y-81564819D02*
X120566190Y-81564819D01*
X121090000Y-81564819D02*
X121090000Y-81802914D01*
X120851905Y-81707676D02*
X121090000Y-81802914D01*
X121090000Y-81802914D02*
X121328095Y-81707676D01*
X120947143Y-81993390D02*
X121090000Y-81802914D01*
X121090000Y-81802914D02*
X121232857Y-81993390D01*
X121851905Y-81564819D02*
X121851905Y-81802914D01*
X121613810Y-81707676D02*
X121851905Y-81802914D01*
X121851905Y-81802914D02*
X122090000Y-81707676D01*
X121709048Y-81993390D02*
X121851905Y-81802914D01*
X121851905Y-81802914D02*
X121994762Y-81993390D01*
X128206666Y-90134819D02*
X127873333Y-89658628D01*
X127635238Y-90134819D02*
X127635238Y-89134819D01*
X127635238Y-89134819D02*
X128016190Y-89134819D01*
X128016190Y-89134819D02*
X128111428Y-89182438D01*
X128111428Y-89182438D02*
X128159047Y-89230057D01*
X128159047Y-89230057D02*
X128206666Y-89325295D01*
X128206666Y-89325295D02*
X128206666Y-89468152D01*
X128206666Y-89468152D02*
X128159047Y-89563390D01*
X128159047Y-89563390D02*
X128111428Y-89611009D01*
X128111428Y-89611009D02*
X128016190Y-89658628D01*
X128016190Y-89658628D02*
X127635238Y-89658628D01*
X128635238Y-89611009D02*
X128968571Y-89611009D01*
X129111428Y-90134819D02*
X128635238Y-90134819D01*
X128635238Y-90134819D02*
X128635238Y-89134819D01*
X128635238Y-89134819D02*
X129111428Y-89134819D01*
X129873333Y-89611009D02*
X129540000Y-89611009D01*
X129540000Y-90134819D02*
X129540000Y-89134819D01*
X129540000Y-89134819D02*
X130016190Y-89134819D01*
X130540000Y-89134819D02*
X130540000Y-89372914D01*
X130301905Y-89277676D02*
X130540000Y-89372914D01*
X130540000Y-89372914D02*
X130778095Y-89277676D01*
X130397143Y-89563390D02*
X130540000Y-89372914D01*
X130540000Y-89372914D02*
X130682857Y-89563390D01*
X131301905Y-89134819D02*
X131301905Y-89372914D01*
X131063810Y-89277676D02*
X131301905Y-89372914D01*
X131301905Y-89372914D02*
X131540000Y-89277676D01*
X131159048Y-89563390D02*
X131301905Y-89372914D01*
X131301905Y-89372914D02*
X131444762Y-89563390D01*
X131718571Y-94094700D02*
X132861429Y-94094700D01*
X132290000Y-94666128D02*
X132290000Y-93523271D01*
X97726666Y-99684819D02*
X97393333Y-99208628D01*
X97155238Y-99684819D02*
X97155238Y-98684819D01*
X97155238Y-98684819D02*
X97536190Y-98684819D01*
X97536190Y-98684819D02*
X97631428Y-98732438D01*
X97631428Y-98732438D02*
X97679047Y-98780057D01*
X97679047Y-98780057D02*
X97726666Y-98875295D01*
X97726666Y-98875295D02*
X97726666Y-99018152D01*
X97726666Y-99018152D02*
X97679047Y-99113390D01*
X97679047Y-99113390D02*
X97631428Y-99161009D01*
X97631428Y-99161009D02*
X97536190Y-99208628D01*
X97536190Y-99208628D02*
X97155238Y-99208628D01*
X98155238Y-99161009D02*
X98488571Y-99161009D01*
X98631428Y-99684819D02*
X98155238Y-99684819D01*
X98155238Y-99684819D02*
X98155238Y-98684819D01*
X98155238Y-98684819D02*
X98631428Y-98684819D01*
X99393333Y-99161009D02*
X99060000Y-99161009D01*
X99060000Y-99684819D02*
X99060000Y-98684819D01*
X99060000Y-98684819D02*
X99536190Y-98684819D01*
X100060000Y-98684819D02*
X100060000Y-98922914D01*
X99821905Y-98827676D02*
X100060000Y-98922914D01*
X100060000Y-98922914D02*
X100298095Y-98827676D01*
X99917143Y-99113390D02*
X100060000Y-98922914D01*
X100060000Y-98922914D02*
X100202857Y-99113390D01*
X100821905Y-98684819D02*
X100821905Y-98922914D01*
X100583810Y-98827676D02*
X100821905Y-98922914D01*
X100821905Y-98922914D02*
X101060000Y-98827676D01*
X100679048Y-99113390D02*
X100821905Y-98922914D01*
X100821905Y-98922914D02*
X100964762Y-99113390D01*
X109156666Y-82854819D02*
X108823333Y-82378628D01*
X108585238Y-82854819D02*
X108585238Y-81854819D01*
X108585238Y-81854819D02*
X108966190Y-81854819D01*
X108966190Y-81854819D02*
X109061428Y-81902438D01*
X109061428Y-81902438D02*
X109109047Y-81950057D01*
X109109047Y-81950057D02*
X109156666Y-82045295D01*
X109156666Y-82045295D02*
X109156666Y-82188152D01*
X109156666Y-82188152D02*
X109109047Y-82283390D01*
X109109047Y-82283390D02*
X109061428Y-82331009D01*
X109061428Y-82331009D02*
X108966190Y-82378628D01*
X108966190Y-82378628D02*
X108585238Y-82378628D01*
X109585238Y-82331009D02*
X109918571Y-82331009D01*
X110061428Y-82854819D02*
X109585238Y-82854819D01*
X109585238Y-82854819D02*
X109585238Y-81854819D01*
X109585238Y-81854819D02*
X110061428Y-81854819D01*
X110823333Y-82331009D02*
X110490000Y-82331009D01*
X110490000Y-82854819D02*
X110490000Y-81854819D01*
X110490000Y-81854819D02*
X110966190Y-81854819D01*
X111490000Y-81854819D02*
X111490000Y-82092914D01*
X111251905Y-81997676D02*
X111490000Y-82092914D01*
X111490000Y-82092914D02*
X111728095Y-81997676D01*
X111347143Y-82283390D02*
X111490000Y-82092914D01*
X111490000Y-82092914D02*
X111632857Y-82283390D01*
X112251905Y-81854819D02*
X112251905Y-82092914D01*
X112013810Y-81997676D02*
X112251905Y-82092914D01*
X112251905Y-82092914D02*
X112490000Y-81997676D01*
X112109048Y-82283390D02*
X112251905Y-82092914D01*
X112251905Y-82092914D02*
X112394762Y-82283390D01*
X109156666Y-98094819D02*
X108823333Y-97618628D01*
X108585238Y-98094819D02*
X108585238Y-97094819D01*
X108585238Y-97094819D02*
X108966190Y-97094819D01*
X108966190Y-97094819D02*
X109061428Y-97142438D01*
X109061428Y-97142438D02*
X109109047Y-97190057D01*
X109109047Y-97190057D02*
X109156666Y-97285295D01*
X109156666Y-97285295D02*
X109156666Y-97428152D01*
X109156666Y-97428152D02*
X109109047Y-97523390D01*
X109109047Y-97523390D02*
X109061428Y-97571009D01*
X109061428Y-97571009D02*
X108966190Y-97618628D01*
X108966190Y-97618628D02*
X108585238Y-97618628D01*
X109585238Y-97571009D02*
X109918571Y-97571009D01*
X110061428Y-98094819D02*
X109585238Y-98094819D01*
X109585238Y-98094819D02*
X109585238Y-97094819D01*
X109585238Y-97094819D02*
X110061428Y-97094819D01*
X110823333Y-97571009D02*
X110490000Y-97571009D01*
X110490000Y-98094819D02*
X110490000Y-97094819D01*
X110490000Y-97094819D02*
X110966190Y-97094819D01*
X111490000Y-97094819D02*
X111490000Y-97332914D01*
X111251905Y-97237676D02*
X111490000Y-97332914D01*
X111490000Y-97332914D02*
X111728095Y-97237676D01*
X111347143Y-97523390D02*
X111490000Y-97332914D01*
X111490000Y-97332914D02*
X111632857Y-97523390D01*
X112251905Y-97094819D02*
X112251905Y-97332914D01*
X112013810Y-97237676D02*
X112251905Y-97332914D01*
X112251905Y-97332914D02*
X112490000Y-97237676D01*
X112109048Y-97523390D02*
X112251905Y-97332914D01*
X112251905Y-97332914D02*
X112394762Y-97523390D01*
D11*
%TO.C,REF\u002A\u002A*%
X103100000Y-86360000D02*
X102330000Y-86360000D01*
X102330000Y-87730000D02*
X102330000Y-84990000D01*
X102330000Y-84990000D02*
X95790000Y-84990000D01*
X95790000Y-87730000D02*
X102330000Y-87730000D01*
X95790000Y-84990000D02*
X95790000Y-87730000D01*
X95020000Y-86360000D02*
X95790000Y-86360000D01*
X122340000Y-98640000D02*
X117840000Y-98640000D01*
X117840000Y-105140000D02*
X122340000Y-105140000D01*
X123590000Y-102640000D02*
X123590000Y-101140000D01*
X116590000Y-101140000D02*
X116590000Y-102640000D01*
X122340000Y-83110000D02*
X117840000Y-83110000D01*
X117840000Y-89610000D02*
X122340000Y-89610000D01*
X123590000Y-87110000D02*
X123590000Y-85610000D01*
X116590000Y-85610000D02*
X116590000Y-87110000D01*
X127340000Y-96980000D02*
X133040000Y-96980000D01*
X127340000Y-96980000D02*
X127340000Y-90980000D01*
X127340000Y-90980000D02*
X133040000Y-90980000D01*
X156235670Y-93980000D02*
G75*
G03*
X133790001Y-90480000I-11495714J11D01*
G01*
X133790000Y-97480000D02*
G75*
G03*
X156235671Y-93980000I10949956J3499989D01*
G01*
X133040000Y-90980000D02*
G75*
G03*
X133790000Y-90480000I0J812500D01*
G01*
X133790000Y-97480000D02*
G75*
G03*
X133040000Y-96980000I-750000J-312500D01*
G01*
X102330000Y-100230000D02*
X95790000Y-100230000D01*
X95790000Y-102970000D02*
X102330000Y-102970000D01*
X102330000Y-102970000D02*
X102330000Y-100230000D01*
X95790000Y-100230000D02*
X95790000Y-102970000D01*
X95020000Y-101600000D02*
X95790000Y-101600000D01*
X103100000Y-101600000D02*
X102330000Y-101600000D01*
X107930000Y-84815000D02*
X107930000Y-87905000D01*
X113479999Y-86360462D02*
G75*
G03*
X107930001Y-84815170I-2989999J462D01*
G01*
X107930000Y-87904830D02*
G75*
G03*
X113480000Y-86359538I2560000J1544830D01*
G01*
X112990000Y-86360000D02*
G75*
G03*
X112990000Y-86360000I-2500000J0D01*
G01*
X112990000Y-101600000D02*
G75*
G03*
X112990000Y-101600000I-2500000J0D01*
G01*
X107930000Y-103144830D02*
G75*
G03*
X113480000Y-101599538I2560000J1544830D01*
G01*
X113479999Y-101600462D02*
G75*
G03*
X107930001Y-100055170I-2989999J462D01*
G01*
X107930000Y-100055000D02*
X107930000Y-103145000D01*
%TD*%
M02*
