%TF.GenerationSoftware,KiCad,Pcbnew,7.0.5*%
%TF.CreationDate,2024-01-16T13:08:26+02:00*%
%TF.ProjectId,Ex04-Chapter06,45783034-2d43-4686-9170-74657230362e,rev?*%
%TF.SameCoordinates,Original*%
%TF.FileFunction,Copper,L2,Bot*%
%TF.FilePolarity,Positive*%
%FSLAX46Y46*%
G04 Gerber Fmt 4.6, Leading zero omitted, Abs format (unit mm)*
G04 Created by KiCad (PCBNEW 7.0.5) date 2024-01-16 13:08:26*
%MOMM*%
%LPD*%
G01*
G04 APERTURE LIST*
%TA.AperFunction,ComponentPad*%
%ADD10R,1.600000X1.600000*%
%TD*%
%TA.AperFunction,ComponentPad*%
%ADD11O,1.600000X1.600000*%
%TD*%
%TA.AperFunction,ComponentPad*%
%ADD12C,1.600000*%
%TD*%
%TA.AperFunction,ComponentPad*%
%ADD13R,3.000000X3.000000*%
%TD*%
%TA.AperFunction,ComponentPad*%
%ADD14C,3.000000*%
%TD*%
%TA.AperFunction,ComponentPad*%
%ADD15R,1.800000X1.800000*%
%TD*%
%TA.AperFunction,ComponentPad*%
%ADD16C,1.800000*%
%TD*%
%TA.AperFunction,ComponentPad*%
%ADD17C,2.000000*%
%TD*%
%TA.AperFunction,Conductor*%
%ADD18C,0.250000*%
%TD*%
G04 APERTURE END LIST*
D10*
%TO.P,U1,1,GND*%
%TO.N,GND*%
X215711396Y-80283844D03*
D11*
%TO.P,U1,2,TR*%
%TO.N,/THRESHOLD*%
X215711396Y-82823844D03*
%TO.P,U1,3,Q*%
%TO.N,Net-(U1-Q)*%
X215711396Y-85363844D03*
%TO.P,U1,4,R*%
%TO.N,VCC*%
X215711396Y-87903844D03*
%TO.P,U1,5,CV*%
%TO.N,Net-(U1-CV)*%
X223331396Y-87903844D03*
%TO.P,U1,6,THR*%
%TO.N,/THRESHOLD*%
X223331396Y-85363844D03*
%TO.P,U1,7,DIS*%
%TO.N,/DISCHARGE*%
X223331396Y-82823844D03*
%TO.P,U1,8,VCC*%
%TO.N,VCC*%
X223331396Y-80283844D03*
%TD*%
D12*
%TO.P,C1,2*%
%TO.N,GND*%
X230664122Y-89275551D03*
%TO.P,C1,1*%
%TO.N,Net-(U1-CV)*%
X230664122Y-94275551D03*
%TD*%
%TO.P,R3,1*%
%TO.N,/THRESHOLD*%
X213758026Y-94322098D03*
D11*
%TO.P,R3,2*%
%TO.N,/DISCHARGE*%
X223918026Y-94322098D03*
%TD*%
D12*
%TO.P,R1,1*%
%TO.N,Net-(D1-A)*%
X230554473Y-81353466D03*
D11*
%TO.P,R1,2*%
%TO.N,Net-(U1-Q)*%
X230554473Y-71193466D03*
%TD*%
D12*
%TO.P,R2,1*%
%TO.N,/DISCHARGE*%
X214819953Y-72088191D03*
D11*
%TO.P,R2,2*%
%TO.N,VCC*%
X224979953Y-72088191D03*
%TD*%
D13*
%TO.P,BT1,1,+*%
%TO.N,Net-(BT1-+)*%
X247382910Y-81061516D03*
D14*
%TO.P,BT1,2,-*%
%TO.N,GND*%
X267872910Y-81061516D03*
%TD*%
D12*
%TO.P,C2,2*%
%TO.N,GND*%
X209063421Y-81594672D03*
D10*
%TO.P,C2,1*%
%TO.N,/THRESHOLD*%
X209063421Y-84094672D03*
%TD*%
D15*
%TO.P,D1,1,K*%
%TO.N,GND*%
X199935206Y-79187914D03*
D16*
%TO.P,D1,2,A*%
%TO.N,Net-(D1-A)*%
X199935206Y-76647914D03*
%TD*%
D17*
%TO.P,SW1,1,1*%
%TO.N,Net-(BT1-+)*%
X240833995Y-77323894D03*
X240833995Y-83823894D03*
%TO.P,SW1,2,2*%
%TO.N,VCC*%
X236333995Y-77323894D03*
X236333995Y-83823894D03*
%TD*%
D15*
%TO.P,D1,1*%
%TO.N,N/C*%
X135950000Y-49470000D03*
D16*
%TO.P,D1,2*%
X138490000Y-49470000D03*
%TD*%
D10*
%TO.P,U1,1*%
%TO.N,N/C*%
X143570000Y-69790000D03*
D11*
%TO.P,U1,2*%
X141030000Y-69790000D03*
%TO.P,U1,3*%
X138490000Y-69790000D03*
%TO.P,U1,4*%
X135950000Y-69790000D03*
%TO.P,U1,5*%
X135950000Y-77410000D03*
%TO.P,U1,6*%
X138490000Y-77410000D03*
%TO.P,U1,7*%
X141030000Y-77410000D03*
%TO.P,U1,8*%
X143570000Y-77410000D03*
%TD*%
D12*
%TO.P,R2,1*%
%TO.N,N/C*%
X151190000Y-67250000D03*
D11*
%TO.P,R2,2*%
X151190000Y-77410000D03*
%TD*%
D12*
%TO.P,R1,1*%
%TO.N,N/C*%
X141030000Y-85030000D03*
D11*
%TO.P,R1,2*%
X151190000Y-85030000D03*
%TD*%
D17*
%TO.P,SW1,1*%
%TO.N,N/C*%
X137780000Y-95480000D03*
X144280000Y-95480000D03*
%TO.P,SW1,2*%
X137780000Y-99980000D03*
X144280000Y-99980000D03*
%TD*%
D13*
%TO.P,BT1,1*%
%TO.N,N/C*%
X141030001Y-113420000D03*
D14*
%TO.P,BT1,2*%
X141030001Y-133910000D03*
%TD*%
D12*
%TO.P,C1,1*%
%TO.N,N/C*%
X128410000Y-85030000D03*
%TO.P,C1,2*%
X133410000Y-85030000D03*
%TD*%
D10*
%TO.P,C2,1*%
%TO.N,N/C*%
X137240000Y-60880000D03*
D12*
%TO.P,C2,2*%
X139740000Y-60880000D03*
%TD*%
%TO.P,R3,1*%
%TO.N,N/C*%
X128330000Y-67250000D03*
D11*
%TO.P,R3,2*%
X128330000Y-77410000D03*
%TD*%
D18*
%TO.N,Net-(U1-Q)*%
X230324198Y-70963191D02*
X230554473Y-71193466D01*
X217656561Y-77820592D02*
X224513962Y-70963191D01*
X224513962Y-70963191D02*
X230324198Y-70963191D01*
X217656561Y-83418679D02*
X217656561Y-77820592D01*
X215711396Y-85363844D02*
X217656561Y-83418679D01*
%TO.N,/DISCHARGE*%
X217126396Y-89028844D02*
X215245405Y-89028844D01*
X215245405Y-89028844D02*
X214586396Y-88369835D01*
X214586396Y-88369835D02*
X214586396Y-72321748D01*
X223331396Y-82823844D02*
X217126396Y-89028844D01*
X214586396Y-72321748D02*
X214819953Y-72088191D01*
X224718025Y-84210473D02*
X223331396Y-82823844D01*
X224718025Y-93522099D02*
X224718025Y-84210473D01*
X223918026Y-94322098D02*
X224718025Y-93522099D01*
%TO.N,VCC*%
X215711396Y-87903844D02*
X223331396Y-80283844D01*
X223331396Y-80283844D02*
X223331396Y-73736748D01*
X223331396Y-73736748D02*
X224979953Y-72088191D01*
%TO.N,*%
X141030001Y-99334999D02*
X141030001Y-114025000D01*
X151190000Y-85030000D02*
X151190000Y-93070000D01*
X151190000Y-93070000D02*
X144280000Y-99980000D01*
X144280000Y-95480000D02*
X141030001Y-98729999D01*
X135950000Y-69790000D02*
X151190000Y-85030000D01*
X141030001Y-98729999D02*
X141030001Y-99334999D01*
X151190000Y-67250000D02*
X143570000Y-67250000D01*
X143570000Y-67250000D02*
X141030000Y-69790000D01*
%TD*%
M02*
