%TF.GenerationSoftware,KiCad,Pcbnew,7.0.5*%
%TF.CreationDate,2024-01-16T13:08:26+02:00*%
%TF.ProjectId,Ex04-Chapter06,45783034-2d43-4686-9170-74657230362e,rev?*%
%TF.SameCoordinates,Original*%
%TF.FileFunction,Copper,L1,Top*%
%TF.FilePolarity,Positive*%
%FSLAX46Y46*%
G04 Gerber Fmt 4.6, Leading zero omitted, Abs format (unit mm)*
G04 Created by KiCad (PCBNEW 7.0.5) date 2024-01-16 13:08:26*
%MOMM*%
%LPD*%
G01*
G04 APERTURE LIST*
%TA.AperFunction,ComponentPad*%
%ADD10R,1.600000X1.600000*%
%TD*%
%TA.AperFunction,ComponentPad*%
%ADD11O,1.600000X1.600000*%
%TD*%
%TA.AperFunction,ComponentPad*%
%ADD12C,1.600000*%
%TD*%
%TA.AperFunction,ComponentPad*%
%ADD13R,3.000000X3.000000*%
%TD*%
%TA.AperFunction,ComponentPad*%
%ADD14C,3.000000*%
%TD*%
%TA.AperFunction,ComponentPad*%
%ADD15R,1.800000X1.800000*%
%TD*%
%TA.AperFunction,ComponentPad*%
%ADD16C,1.800000*%
%TD*%
%TA.AperFunction,ComponentPad*%
%ADD17C,2.000000*%
%TD*%
%TA.AperFunction,Conductor*%
%ADD18C,0.250000*%
%TD*%
G04 APERTURE END LIST*
D10*
%TO.P,U1,1,GND*%
%TO.N,GND*%
X215711396Y-80283844D03*
D11*
%TO.P,U1,2,TR*%
%TO.N,/THRESHOLD*%
X215711396Y-82823844D03*
%TO.P,U1,3,Q*%
%TO.N,Net-(U1-Q)*%
X215711396Y-85363844D03*
%TO.P,U1,4,R*%
%TO.N,VCC*%
X215711396Y-87903844D03*
%TO.P,U1,5,CV*%
%TO.N,Net-(U1-CV)*%
X223331396Y-87903844D03*
%TO.P,U1,6,THR*%
%TO.N,/THRESHOLD*%
X223331396Y-85363844D03*
%TO.P,U1,7,DIS*%
%TO.N,/DISCHARGE*%
X223331396Y-82823844D03*
%TO.P,U1,8,VCC*%
%TO.N,VCC*%
X223331396Y-80283844D03*
%TD*%
D12*
%TO.P,C1,2*%
%TO.N,GND*%
X230664122Y-89275551D03*
%TO.P,C1,1*%
%TO.N,Net-(U1-CV)*%
X230664122Y-94275551D03*
%TD*%
%TO.P,R3,1*%
%TO.N,/THRESHOLD*%
X213758026Y-94322098D03*
D11*
%TO.P,R3,2*%
%TO.N,/DISCHARGE*%
X223918026Y-94322098D03*
%TD*%
D12*
%TO.P,R1,1*%
%TO.N,Net-(D1-A)*%
X230554473Y-81353466D03*
D11*
%TO.P,R1,2*%
%TO.N,Net-(U1-Q)*%
X230554473Y-71193466D03*
%TD*%
D12*
%TO.P,R2,1*%
%TO.N,/DISCHARGE*%
X214819953Y-72088191D03*
D11*
%TO.P,R2,2*%
%TO.N,VCC*%
X224979953Y-72088191D03*
%TD*%
D13*
%TO.P,BT1,1,+*%
%TO.N,Net-(BT1-+)*%
X247382910Y-81061516D03*
D14*
%TO.P,BT1,2,-*%
%TO.N,GND*%
X267872910Y-81061516D03*
%TD*%
D12*
%TO.P,C2,2*%
%TO.N,GND*%
X209063421Y-81594672D03*
D10*
%TO.P,C2,1*%
%TO.N,/THRESHOLD*%
X209063421Y-84094672D03*
%TD*%
D15*
%TO.P,D1,1,K*%
%TO.N,GND*%
X199935206Y-79187914D03*
D16*
%TO.P,D1,2,A*%
%TO.N,Net-(D1-A)*%
X199935206Y-76647914D03*
%TD*%
D17*
%TO.P,SW1,1,1*%
%TO.N,Net-(BT1-+)*%
X240833995Y-77323894D03*
X240833995Y-83823894D03*
%TO.P,SW1,2,2*%
%TO.N,VCC*%
X236333995Y-77323894D03*
X236333995Y-83823894D03*
%TD*%
D15*
%TO.P,D1,1*%
%TO.N,N/C*%
X135950000Y-49470000D03*
D16*
%TO.P,D1,2*%
X138490000Y-49470000D03*
%TD*%
D10*
%TO.P,U1,1*%
%TO.N,N/C*%
X143570000Y-69790000D03*
D11*
%TO.P,U1,2*%
X141030000Y-69790000D03*
%TO.P,U1,3*%
X138490000Y-69790000D03*
%TO.P,U1,4*%
X135950000Y-69790000D03*
%TO.P,U1,5*%
X135950000Y-77410000D03*
%TO.P,U1,6*%
X138490000Y-77410000D03*
%TO.P,U1,7*%
X141030000Y-77410000D03*
%TO.P,U1,8*%
X143570000Y-77410000D03*
%TD*%
D12*
%TO.P,R2,1*%
%TO.N,N/C*%
X151190000Y-67250000D03*
D11*
%TO.P,R2,2*%
X151190000Y-77410000D03*
%TD*%
D12*
%TO.P,R1,1*%
%TO.N,N/C*%
X141030000Y-85030000D03*
D11*
%TO.P,R1,2*%
X151190000Y-85030000D03*
%TD*%
D17*
%TO.P,SW1,1*%
%TO.N,N/C*%
X137780000Y-95480000D03*
X144280000Y-95480000D03*
%TO.P,SW1,2*%
X137780000Y-99980000D03*
X144280000Y-99980000D03*
%TD*%
D13*
%TO.P,BT1,1*%
%TO.N,N/C*%
X141030001Y-113420000D03*
D14*
%TO.P,BT1,2*%
X141030001Y-133910000D03*
%TD*%
D12*
%TO.P,C1,1*%
%TO.N,N/C*%
X128410000Y-85030000D03*
%TO.P,C1,2*%
X133410000Y-85030000D03*
%TD*%
D10*
%TO.P,C2,1*%
%TO.N,N/C*%
X137240000Y-60880000D03*
D12*
%TO.P,C2,2*%
X139740000Y-60880000D03*
%TD*%
%TO.P,R3,1*%
%TO.N,N/C*%
X128330000Y-67250000D03*
D11*
%TO.P,R3,2*%
X128330000Y-77410000D03*
%TD*%
D18*
%TO.N,GND*%
X225337415Y-83948844D02*
X230664122Y-89275551D01*
X215711396Y-80283844D02*
X219376396Y-83948844D01*
X219376396Y-83948844D02*
X225337415Y-83948844D01*
X202341964Y-81594672D02*
X199935206Y-79187914D01*
X209063421Y-81594672D02*
X202341964Y-81594672D01*
X214400568Y-81594672D02*
X215711396Y-80283844D01*
X209063421Y-81594672D02*
X214400568Y-81594672D01*
%TO.N,/THRESHOLD*%
X218251396Y-85363844D02*
X223331396Y-85363844D01*
X215711396Y-82823844D02*
X218251396Y-85363844D01*
X209063421Y-84094672D02*
X214440568Y-84094672D01*
X214440568Y-84094672D02*
X215711396Y-82823844D01*
%TO.N,VCC*%
X230215656Y-77323894D02*
X224979953Y-72088191D01*
X236333995Y-77323894D02*
X230215656Y-77323894D01*
%TO.N,Net-(D1-A)*%
X225848921Y-76647914D02*
X199935206Y-76647914D01*
X230554473Y-81353466D02*
X225848921Y-76647914D01*
%TO.N,VCC*%
X236333995Y-77323894D02*
X236333995Y-83823894D01*
%TO.N,Net-(BT1-+)*%
X240833995Y-83823894D02*
X240833995Y-77323894D01*
X246376106Y-83823894D02*
X240833995Y-83823894D01*
X247382910Y-82817090D02*
X246376106Y-83823894D01*
X247382910Y-81061516D02*
X247382910Y-82817090D01*
%TO.N,/THRESHOLD*%
X209063421Y-89627493D02*
X209063421Y-84094672D01*
X213758026Y-94322098D02*
X209063421Y-89627493D01*
%TO.N,Net-(U1-CV)*%
X224292415Y-87903844D02*
X223331396Y-87903844D01*
X230664122Y-94275551D02*
X224292415Y-87903844D01*
%TO.N,GND*%
X258395541Y-81061516D02*
X250181506Y-89275551D01*
X250181506Y-89275551D02*
X230664122Y-89275551D01*
X267872910Y-81061516D02*
X258395541Y-81061516D01*
%TO.N,*%
X133410000Y-126289999D02*
X141030001Y-133910000D01*
X146110000Y-69790000D02*
X143570000Y-69790000D01*
X133410000Y-85030000D02*
X135950000Y-85030000D01*
X138490000Y-54550000D02*
X139740000Y-55800000D01*
X143570000Y-64710000D02*
X143570000Y-69790000D01*
X133490000Y-85110000D02*
X133410000Y-85030000D01*
X143570000Y-85030000D02*
X141030000Y-85030000D01*
X133410000Y-85030000D02*
X133410000Y-126289999D01*
X137240000Y-66000000D02*
X141030000Y-69790000D01*
X138490000Y-49470000D02*
X138490000Y-54550000D01*
X139740000Y-60880000D02*
X143570000Y-64710000D01*
X141030000Y-77410000D02*
X141030000Y-85030000D01*
X144280000Y-99980000D02*
X137780000Y-99980000D01*
X139740000Y-55800000D02*
X139740000Y-60880000D01*
X139760000Y-60880000D02*
X139740000Y-60880000D01*
X151190000Y-77410000D02*
X143570000Y-85030000D01*
X146110000Y-79950000D02*
X146110000Y-69790000D01*
X138490000Y-72330000D02*
X138490000Y-77410000D01*
X128330000Y-67250000D02*
X128330000Y-57090000D01*
X141030000Y-69790000D02*
X138490000Y-72330000D01*
X130870000Y-77410000D02*
X128330000Y-77410000D01*
X144280000Y-95480000D02*
X137780000Y-95480000D01*
X135950000Y-85030000D02*
X141030000Y-79950000D01*
X137240000Y-60880000D02*
X137240000Y-66000000D01*
X141030000Y-79950000D02*
X146110000Y-79950000D01*
X128330000Y-57090000D02*
X135950000Y-49470000D01*
X138490000Y-69790000D02*
X130870000Y-77410000D01*
%TD*%
M02*
