%TF.GenerationSoftware,KiCad,Pcbnew,7.0.5*%
%TF.CreationDate,2024-01-16T13:08:26+02:00*%
%TF.ProjectId,Ex04-Chapter06,45783034-2d43-4686-9170-74657230362e,rev?*%
%TF.SameCoordinates,Original*%
%TF.FileFunction,Soldermask,Bot*%
%TF.FilePolarity,Negative*%
%FSLAX46Y46*%
G04 Gerber Fmt 4.6, Leading zero omitted, Abs format (unit mm)*
G04 Created by KiCad (PCBNEW 7.0.5) date 2024-01-16 13:08:26*
%MOMM*%
%LPD*%
G01*
G04 APERTURE LIST*
%ADD10R,1.600000X1.600000*%
%ADD11O,1.600000X1.600000*%
%ADD12C,1.600000*%
%ADD13R,3.000000X3.000000*%
%ADD14C,3.000000*%
%ADD15R,1.800000X1.800000*%
%ADD16C,1.800000*%
%ADD17C,2.000000*%
G04 APERTURE END LIST*
D10*
%TO.C,U1*%
X215711396Y-80283844D03*
D11*
X215711396Y-82823844D03*
X215711396Y-85363844D03*
X215711396Y-87903844D03*
X223331396Y-87903844D03*
X223331396Y-85363844D03*
X223331396Y-82823844D03*
X223331396Y-80283844D03*
%TD*%
D12*
%TO.C,C1*%
X230664122Y-89275551D03*
X230664122Y-94275551D03*
%TD*%
%TO.C,R3*%
X213758026Y-94322098D03*
D11*
X223918026Y-94322098D03*
%TD*%
D12*
%TO.C,R1*%
X230554473Y-81353466D03*
D11*
X230554473Y-71193466D03*
%TD*%
D12*
%TO.C,R2*%
X214819953Y-72088191D03*
D11*
X224979953Y-72088191D03*
%TD*%
D13*
%TO.C,BT1*%
X247382910Y-81061516D03*
D14*
X267872910Y-81061516D03*
%TD*%
D12*
%TO.C,C2*%
X209063421Y-81594672D03*
D10*
X209063421Y-84094672D03*
%TD*%
D15*
%TO.C,D1*%
X199935206Y-79187914D03*
D16*
X199935206Y-76647914D03*
%TD*%
D17*
%TO.C,SW1*%
X240833995Y-77323894D03*
X240833995Y-83823894D03*
X236333995Y-77323894D03*
X236333995Y-83823894D03*
%TD*%
D15*
%TO.C,D1*%
X135950000Y-49470000D03*
D16*
X138490000Y-49470000D03*
%TD*%
D10*
%TO.C,U1*%
X143570000Y-69790000D03*
D11*
X141030000Y-69790000D03*
X138490000Y-69790000D03*
X135950000Y-69790000D03*
X135950000Y-77410000D03*
X138490000Y-77410000D03*
X141030000Y-77410000D03*
X143570000Y-77410000D03*
%TD*%
D12*
%TO.C,R2*%
X151190000Y-67250000D03*
D11*
X151190000Y-77410000D03*
%TD*%
D12*
%TO.C,R1*%
X141030000Y-85030000D03*
D11*
X151190000Y-85030000D03*
%TD*%
D17*
%TO.C,SW1*%
X137780000Y-95480000D03*
X144280000Y-95480000D03*
X137780000Y-99980000D03*
X144280000Y-99980000D03*
%TD*%
D13*
%TO.C,BT1*%
X141030001Y-113420000D03*
D14*
X141030001Y-133910000D03*
%TD*%
D12*
%TO.C,C1*%
X128410000Y-85030000D03*
X133410000Y-85030000D03*
%TD*%
D10*
%TO.C,C2*%
X137240000Y-60880000D03*
D12*
X139740000Y-60880000D03*
%TD*%
%TO.C,R3*%
X128330000Y-67250000D03*
D11*
X128330000Y-77410000D03*
%TD*%
M02*
