M48
; DRILL file {KiCad 7.0.5} date Tue Jan 16 13:08:35 2024
; FORMAT={-:-/ absolute / inch / decimal}
; #@! TF.CreationDate,2024-01-16T13:08:35+02:00
; #@! TF.GenerationSoftware,Kicad,Pcbnew,7.0.5
; #@! TF.FileFunction,Plated,1,2,PTH
FMAT,2
INCH
; #@! TA.AperFunction,Plated,PTH,ComponentDrill
T1C0.0315
; #@! TA.AperFunction,Plated,PTH,ComponentDrill
T2C0.0354
; #@! TA.AperFunction,Plated,PTH,ComponentDrill
T3C0.0433
; #@! TA.AperFunction,Plated,PTH,ComponentDrill
T4C0.0591
%
G90
G05
T1
X5.0524Y-2.6476
X5.0524Y-3.0476
X5.0555Y-3.3476
X5.2524Y-3.3476
X5.3524Y-2.7476
X5.3524Y-3.0476
X5.4031Y-2.3969
X5.4524Y-2.7476
X5.4524Y-3.0476
X5.5016Y-2.3969
X5.5524Y-2.7476
X5.5524Y-3.0476
X5.5524Y-3.3476
X5.6524Y-2.7476
X5.6524Y-3.0476
X5.9524Y-2.6476
X5.9524Y-3.0476
X5.9524Y-3.3476
X8.2308Y-3.2124
X8.2308Y-3.3108
X8.4157Y-3.7135
X8.4575Y-2.8381
X8.4926Y-3.1608
X8.4926Y-3.2608
X8.4926Y-3.3608
X8.4926Y-3.4608
X8.7926Y-3.1608
X8.7926Y-3.2608
X8.7926Y-3.3608
X8.7926Y-3.4608
X8.8157Y-3.7135
X8.8575Y-2.8381
X9.0769Y-2.8029
X9.0769Y-3.2029
X9.0813Y-3.5148
X9.0813Y-3.7116
T2
X5.3524Y-1.9476
X5.4524Y-1.9476
X7.8715Y-3.0176
X7.8715Y-3.1176
T3
X5.4244Y-3.7591
X5.4244Y-3.9362
X5.6803Y-3.7591
X5.6803Y-3.9362
X9.3045Y-3.0442
X9.3045Y-3.3002
X9.4817Y-3.0442
X9.4817Y-3.3002
T4
X5.5524Y-4.4654
X5.5524Y-5.272
X9.7395Y-3.1914
X10.5462Y-3.1914
T0
M30
